<svg width="38" height="38" viewBox="0 0 38 38" fill="none" xmlns="http://www.w3.org/2000/svg">
<path d="M10.656 31.192C11.9543 29.7987 13.9335 29.9095 15.0735 31.4295L16.6726 33.567C17.9551 35.2612 20.0293 35.2612 21.3118 33.567L22.911 31.4295C24.051 29.9095 26.0301 29.7987 27.3285 31.192C30.1468 34.2003 32.4426 33.2028 32.4426 28.9912V11.147C32.4585 4.76616 30.9701 3.16699 24.9851 3.16699H13.0151C7.03014 3.16699 5.54181 4.76616 5.54181 11.147V28.9753C5.54181 33.2028 7.85348 34.1845 10.656 31.192Z" stroke="#3CAFB6" stroke-width="2.38771" stroke-linecap="round" stroke-linejoin="round"/>
<path d="M12.8187 17.4167H12.8329" stroke="#3CAFB6" stroke-width="2.38771" stroke-linecap="round" stroke-linejoin="round"/>
<path d="M17.2557 17.417H25.9641" stroke="#3CAFB6" stroke-width="2.38771" stroke-linecap="round" stroke-linejoin="round"/>
<path d="M12.8187 11.0837H12.8329" stroke="#3CAFB6" stroke-width="2.38771" stroke-linecap="round" stroke-linejoin="round"/>
<path d="M17.2557 11.083H25.9641" stroke="#3CAFB6" stroke-width="2.38771" stroke-linecap="round" stroke-linejoin="round"/>
</svg>
