<svg width="38" height="38" viewBox="0 0 38 38" fill="none" xmlns="http://www.w3.org/2000/svg">
<path d="M14.25 34.8337H23.75C31.6667 34.8337 34.8334 31.667 34.8334 23.7503V14.2503C34.8334 6.33366 31.6667 3.16699 23.75 3.16699H14.25C6.33338 3.16699 3.16671 6.33366 3.16671 14.2503V23.7503C3.16671 31.667 6.33338 34.8337 14.25 34.8337Z" stroke="#93CC1A" stroke-width="2.38771" stroke-linecap="round" stroke-linejoin="round"/>
<path d="M11.0834 13.0625C12.6667 14.6458 15.2476 14.6458 16.8467 13.0625" stroke="#93CC1A" stroke-width="2.38771" stroke-miterlimit="10" stroke-linecap="round" stroke-linejoin="round"/>
<path d="M21.1533 13.0625C22.7366 14.6458 25.3174 14.6458 26.9166 13.0625" stroke="#93CC1A" stroke-width="2.38771" stroke-miterlimit="10" stroke-linecap="round" stroke-linejoin="round"/>
<path d="M13.3 20.583H24.7C25.4917 20.583 26.125 21.2163 26.125 22.008C26.125 25.9505 22.9425 29.133 19 29.133C15.0575 29.133 11.875 25.9505 11.875 22.008C11.875 21.2163 12.5084 20.583 13.3 20.583Z" stroke="#93CC1A" stroke-width="2.38771" stroke-miterlimit="10" stroke-linecap="round" stroke-linejoin="round"/>
</svg>
