<svg width="38" height="38" viewBox="0 0 38 38" fill="none" xmlns="http://www.w3.org/2000/svg">
<path d="M12.6666 34.8333H25.3333C31.6983 34.8333 32.8383 32.2842 33.1708 29.1808L34.3583 16.5142C34.7858 12.6508 33.6774 9.5 26.9166 9.5H11.0833C4.32243 9.5 3.2141 12.6508 3.6416 16.5142L4.8291 29.1808C5.1616 32.2842 6.3016 34.8333 12.6666 34.8333Z" stroke="#F2A002" stroke-width="2.38771" stroke-miterlimit="10" stroke-linecap="round" stroke-linejoin="round"/>
<path d="M12.6667 9.50033V8.23366C12.6667 5.43116 12.6667 3.16699 17.7333 3.16699H20.2667C25.3333 3.16699 25.3333 5.43116 25.3333 8.23366V9.50033" stroke="#F2A002" stroke-width="2.38771" stroke-miterlimit="10" stroke-linecap="round" stroke-linejoin="round"/>
<path d="M22.1667 20.5833V22.1667C22.1667 22.1825 22.1667 22.1825 22.1667 22.1983C22.1667 23.9242 22.1509 25.3333 19 25.3333C15.865 25.3333 15.8334 23.94 15.8334 22.2142V20.5833C15.8334 19 15.8334 19 17.4167 19H20.5834C22.1667 19 22.1667 19 22.1667 20.5833Z" stroke="#F2A002" stroke-width="2.38771" stroke-miterlimit="10" stroke-linecap="round" stroke-linejoin="round"/>
<path d="M34.2791 17.417C30.6216 20.077 26.4416 21.6603 22.1666 22.1987" stroke="#F2A002" stroke-width="2.38771" stroke-miterlimit="10" stroke-linecap="round" stroke-linejoin="round"/>
<path d="M4.14838 17.8438C7.71088 20.2821 11.7325 21.7546 15.8334 22.2137" stroke="#F2A002" stroke-width="2.38771" stroke-miterlimit="10" stroke-linecap="round" stroke-linejoin="round"/>
</svg>
