<svg width="38" height="38" viewBox="0 0 38 38" fill="none" xmlns="http://www.w3.org/2000/svg">
<path d="M22.1668 3.59375V10.1338C22.1668 11.0205 22.1668 11.4639 22.3393 11.8026C22.4911 12.1005 22.7334 12.3427 23.0313 12.4945C23.37 12.6671 23.8134 12.6671 24.7001 12.6671H31.2401M19.0001 28.5003V19.0003M14.2501 23.7503H23.7501M22.1668 3.16699H13.9334C11.2732 3.16699 9.94306 3.16699 8.92698 3.68471C8.03321 4.14011 7.30655 4.86677 6.85115 5.76054C6.33344 6.77662 6.33344 8.10674 6.33344 10.767V27.2337C6.33344 29.8939 6.33344 31.224 6.85115 32.2401C7.30655 33.1339 8.03321 33.8605 8.92698 34.3159C9.94306 34.8337 11.2732 34.8337 13.9334 34.8337H24.0668C26.727 34.8337 28.0571 34.8337 29.0732 34.3159C29.967 33.8605 30.6937 33.1339 31.1491 32.2401C31.6668 31.224 31.6668 29.8939 31.6668 27.2337V12.667L22.1668 3.16699Z" stroke="#EA6940" stroke-width="2.38771" stroke-linecap="round" stroke-linejoin="round"/>
</svg>
