<svg width="38" height="38" viewBox="0 0 38 38" fill="none" xmlns="http://www.w3.org/2000/svg">
<path d="M28.5 29.8617H27.2966C26.03 29.8617 24.8266 30.3526 23.94 31.2392L21.2324 33.9151C19.9974 35.1342 17.9867 35.1342 16.7517 33.9151L14.0441 31.2392C13.1575 30.3526 11.9383 29.8617 10.6875 29.8617H9.49997C6.87164 29.8617 4.74997 27.7559 4.74997 25.1592V7.86925C4.74997 5.27258 6.87164 3.16675 9.49997 3.16675H28.5C31.1283 3.16675 33.25 5.27258 33.25 7.86925V25.1434C33.25 27.7401 31.1283 29.8617 28.5 29.8617Z" stroke="#93CC1A" stroke-width="2.38771" stroke-miterlimit="10" stroke-linecap="round" stroke-linejoin="round"/>
<path d="M19.111 14.1708C19.0476 14.1708 18.9526 14.1708 18.8734 14.1708C17.2109 14.1075 15.8967 12.7617 15.8967 11.0833C15.8967 9.37335 17.2743 7.99585 18.9843 7.99585C20.6943 7.99585 22.0718 9.38918 22.0718 11.0833C22.0876 12.7617 20.7735 14.1233 19.111 14.1708Z" stroke="#93CC1A" stroke-width="2.38771" stroke-linecap="round" stroke-linejoin="round"/>
<path d="M14.646 18.9368C12.5401 20.3459 12.5401 22.6418 14.646 24.0509C17.0368 25.6501 20.9635 25.6501 23.3543 24.0509C25.4601 22.6418 25.4601 20.3459 23.3543 18.9368C20.9635 17.3534 17.0526 17.3534 14.646 18.9368Z" stroke="#93CC1A" stroke-width="2.38771" stroke-linecap="round" stroke-linejoin="round"/>
</svg>
