<svg width="39" height="38" viewBox="0 0 39 38" fill="none" xmlns="http://www.w3.org/2000/svg">
<path d="M19.4999 22.1667H21.0832C22.8249 22.1667 24.2499 20.7417 24.2499 19.0001V3.16675H9.9999C7.6249 3.16675 5.55075 4.4809 4.47408 6.41256" stroke="#C600FF" stroke-width="2.38771" stroke-linecap="round" stroke-linejoin="round"/>
<path d="M3.66652 26.9167C3.66652 29.5451 5.78819 31.6668 8.41652 31.6668H9.99985C9.99985 29.9251 11.4249 28.5001 13.1665 28.5001C14.9082 28.5001 16.3332 29.9251 16.3332 31.6668H22.6665C22.6665 29.9251 24.0915 28.5001 25.8332 28.5001C27.5749 28.5001 28.9999 29.9251 28.9999 31.6668H30.5832C33.2115 31.6668 35.3332 29.5451 35.3332 26.9167V22.1667H30.5832C29.7124 22.1667 28.9999 21.4542 28.9999 20.5834V15.8334C28.9999 14.9626 29.7124 14.2501 30.5832 14.2501H32.6256L29.9182 9.51593C29.3482 8.53426 28.3032 7.91675 27.1632 7.91675H24.2499V19.0001C24.2499 20.7417 22.8249 22.1667 21.0832 22.1667H19.4999" stroke="#C600FF" stroke-width="2.38771" stroke-linecap="round" stroke-linejoin="round"/>
<path d="M13.1666 34.8333C14.9155 34.8333 16.3333 33.4156 16.3333 31.6667C16.3333 29.9178 14.9155 28.5 13.1666 28.5C11.4177 28.5 9.99995 29.9178 9.99995 31.6667C9.99995 33.4156 11.4177 34.8333 13.1666 34.8333Z" stroke="#C600FF" stroke-width="2.38771" stroke-linecap="round" stroke-linejoin="round"/>
<path d="M25.8335 34.8333C27.5824 34.8333 29.0001 33.4156 29.0001 31.6667C29.0001 29.9178 27.5824 28.5 25.8335 28.5C24.0846 28.5 22.6668 29.9178 22.6668 31.6667C22.6668 33.4156 24.0846 34.8333 25.8335 34.8333Z" stroke="#C600FF" stroke-width="2.38771" stroke-linecap="round" stroke-linejoin="round"/>
<path d="M35.3332 19V22.1667H30.5832C29.7123 22.1667 28.9998 21.4542 28.9998 20.5833V15.8333C28.9998 14.9625 29.7123 14.25 30.5832 14.25H32.6256L35.3332 19Z" stroke="#C600FF" stroke-width="2.38771" stroke-linecap="round" stroke-linejoin="round"/>
<path d="M3.66652 12.6667H13.1665" stroke="#C600FF" stroke-width="2.38771" stroke-linecap="round" stroke-linejoin="round"/>
<path d="M3.66652 17.4167H9.99985" stroke="#C600FF" stroke-width="2.38771" stroke-linecap="round" stroke-linejoin="round"/>
<path d="M3.66652 22.1667H6.83319" stroke="#C600FF" stroke-width="2.38771" stroke-linecap="round" stroke-linejoin="round"/>
</svg>
