<svg width="39" height="38" viewBox="0 0 39 38" fill="none" xmlns="http://www.w3.org/2000/svg">
<path d="M5.5192 11.78L19.5 19.8708L33.3858 11.8275" stroke="#F2A002" stroke-width="2.38771" stroke-linecap="round" stroke-linejoin="round"/>
<path d="M19.5 34.2158V19.855" stroke="#F2A002" stroke-width="2.38771" stroke-linecap="round" stroke-linejoin="round"/>
<path d="M34.7157 20.3143V14.5193C34.7157 12.3343 33.1482 9.67428 31.2324 8.61345L22.7774 3.92675C20.9724 2.91341 18.0273 2.91341 16.2223 3.92675L7.76735 8.61345C5.85151 9.67428 4.28404 12.3343 4.28404 14.5193V23.481C4.28404 25.666 5.85151 28.3259 7.76735 29.3868L16.2223 34.0735C17.1248 34.5801 18.3124 34.8334 19.4999 34.8334C20.6874 34.8334 21.8749 34.5801 22.7774 34.0735" stroke="#F2A002" stroke-width="2.38771" stroke-linecap="round" stroke-linejoin="round"/>
<path d="M30.9 33.8834C33.6982 33.8834 35.9666 31.6149 35.9666 28.8167C35.9666 26.0184 33.6982 23.75 30.9 23.75C28.1018 23.75 25.8333 26.0184 25.8333 28.8167C25.8333 31.6149 28.1018 33.8834 30.9 33.8834Z" stroke="#F2A002" stroke-width="2.38771" stroke-linecap="round" stroke-linejoin="round"/>
<path d="M36.9167 34.8333L35.3333 33.25" stroke="#F2A002" stroke-width="2.38771" stroke-linecap="round" stroke-linejoin="round"/>
</svg>
