<svg width="39" height="38" viewBox="0 0 39 38" fill="none" xmlns="http://www.w3.org/2000/svg">
<path d="M24.2498 3.16675V19.0001C24.2498 20.7417 22.8248 22.1667 21.0832 22.1667H3.6665V12.0651C4.82234 13.4426 6.59571 14.2976 8.55905 14.2501C10.1582 14.2184 11.599 13.6009 12.6757 12.5718C13.1665 12.1601 13.5782 11.6376 13.8949 11.0676C14.4649 10.1017 14.7815 8.96171 14.7498 7.77421C14.7023 5.92171 13.879 4.29091 12.5965 3.16675H24.2498Z" stroke="#6366F1" stroke-width="2.38771" stroke-linecap="round" stroke-linejoin="round"/>
<path d="M35.3332 22.1667V26.9167C35.3332 29.5451 33.2115 31.6668 30.5832 31.6668H28.9998C28.9998 29.9251 27.5748 28.5001 25.8332 28.5001C24.0915 28.5001 22.6665 29.9251 22.6665 31.6668H16.3332C16.3332 29.9251 14.9082 28.5001 13.1665 28.5001C11.4248 28.5001 9.99984 29.9251 9.99984 31.6668H8.4165C5.78817 31.6668 3.6665 29.5451 3.6665 26.9167V22.1667H21.0832C22.8248 22.1667 24.2498 20.7417 24.2498 19.0001V7.91675H27.1632C28.3032 7.91675 29.3482 8.53426 29.9182 9.51593L32.6256 14.2501H30.5832C29.7123 14.2501 28.9998 14.9626 28.9998 15.8334V20.5834C28.9998 21.4542 29.7123 22.1667 30.5832 22.1667H35.3332Z" stroke="#6366F1" stroke-width="2.38771" stroke-linecap="round" stroke-linejoin="round"/>
<path d="M13.167 34.8333C14.9159 34.8333 16.3337 33.4156 16.3337 31.6667C16.3337 29.9178 14.9159 28.5 13.167 28.5C11.4181 28.5 10.0003 29.9178 10.0003 31.6667C10.0003 33.4156 11.4181 34.8333 13.167 34.8333Z" stroke="#6366F1" stroke-width="2.38771" stroke-linecap="round" stroke-linejoin="round"/>
<path d="M25.8331 34.8333C27.582 34.8333 28.9997 33.4156 28.9997 31.6667C28.9997 29.9178 27.582 28.5 25.8331 28.5C24.0842 28.5 22.6664 29.9178 22.6664 31.6667C22.6664 33.4156 24.0842 34.8333 25.8331 34.8333Z" stroke="#6366F1" stroke-width="2.38771" stroke-linecap="round" stroke-linejoin="round"/>
<path d="M35.3335 19V22.1667H30.5835C29.7127 22.1667 29.0002 21.4542 29.0002 20.5833V15.8333C29.0002 14.9625 29.7127 14.25 30.5835 14.25H32.626L35.3335 19Z" stroke="#6366F1" stroke-width="2.38771" stroke-linecap="round" stroke-linejoin="round"/>
<path d="M14.7502 7.77426C14.7818 8.96176 14.4652 10.1018 13.8952 11.0676C13.5785 11.6376 13.1669 12.1601 12.676 12.5718C11.5994 13.601 10.1586 14.2185 8.55939 14.2501C6.59606 14.2976 4.82268 13.4426 3.66685 12.0651C3.44518 11.8276 3.25519 11.5585 3.08102 11.2893C2.46352 10.3551 2.11518 9.24684 2.08351 8.05934C2.03601 6.06434 2.92267 4.24346 4.34767 3.05595C5.42434 2.16929 6.78597 1.61513 8.27431 1.58347C9.93681 1.5518 11.4569 2.15347 12.5969 3.1668C13.8794 4.29097 14.7027 5.92176 14.7502 7.77426Z" stroke="#6366F1" stroke-width="2.38771" stroke-miterlimit="10" stroke-linecap="round" stroke-linejoin="round"/>
<path d="M5.94711 7.96431L7.5463 9.48425L10.8554 6.28589" stroke="#6366F1" stroke-width="2.38771" stroke-linecap="round" stroke-linejoin="round"/>
</svg>
