<svg width="39" height="38" viewBox="0 0 39 38" fill="none" xmlns="http://www.w3.org/2000/svg">
<path d="M35.333 23.75C35.333 29.8775 30.3772 34.8333 24.2497 34.8333L25.9122 32.0625" stroke="#93CC1A" stroke-width="2.38771" stroke-linecap="round" stroke-linejoin="round"/>
<path d="M3.6665 14.2501C3.6665 8.12258 8.62234 3.16675 14.7498 3.16675L13.0873 5.93758" stroke="#93CC1A" stroke-width="2.38771" stroke-linecap="round" stroke-linejoin="round"/>
<path d="M22.1914 7.0459L28.4931 10.6875L34.7314 7.06175" stroke="#93CC1A" stroke-width="2.38771" stroke-linecap="round" stroke-linejoin="round"/>
<path d="M28.493 17.1317V10.6716" stroke="#93CC1A" stroke-width="2.38771" stroke-linecap="round" stroke-linejoin="round"/>
<path d="M27.0048 3.49925L23.2048 5.60501C22.3498 6.08001 21.6373 7.28333 21.6373 8.265V12.2867C21.6373 13.2684 22.334 14.4717 23.2048 14.9467L27.0048 17.0526C27.8123 17.5117 29.1423 17.5117 29.9657 17.0526L33.7656 14.9467C34.6206 14.4717 35.3332 13.2684 35.3332 12.2867V8.265C35.3332 7.28333 34.6365 6.08001 33.7656 5.60501L29.9657 3.49925C29.1582 3.05591 27.8282 3.05591 27.0048 3.49925Z" stroke="#93CC1A" stroke-width="2.38771" stroke-linecap="round" stroke-linejoin="round"/>
<path d="M4.2207 24.4624L10.5065 28.104L16.7607 24.4783" stroke="#93CC1A" stroke-width="2.38771" stroke-linecap="round" stroke-linejoin="round"/>
<path d="M10.5067 34.5482V28.0881" stroke="#93CC1A" stroke-width="2.38771" stroke-linecap="round" stroke-linejoin="round"/>
<path d="M9.034 20.9158L5.23401 23.0215C4.37901 23.4965 3.6665 24.6998 3.6665 25.6815V29.7032C3.6665 30.6849 4.36318 31.8882 5.23401 32.3632L9.034 34.4691C9.8415 34.9282 11.1715 34.9282 11.9948 34.4691L15.7948 32.3632C16.6498 31.8882 17.3623 30.6849 17.3623 29.7032V25.6815C17.3623 24.6998 16.6657 23.4965 15.7948 23.0215L11.9948 20.9158C11.1715 20.4724 9.8415 20.4724 9.034 20.9158Z" stroke="#93CC1A" stroke-width="2.38771" stroke-linecap="round" stroke-linejoin="round"/>
</svg>
