<svg width="38" height="38" viewBox="0 0 38 38" fill="none" xmlns="http://www.w3.org/2000/svg">
<path fill-rule="evenodd" clip-rule="evenodd" d="M4.33557 14.27C4.33557 12.7316 5.58276 11.4844 7.12124 11.4844H31.0822C32.6206 11.4844 33.8678 12.7316 33.8678 14.27V23.8488C33.8678 30.6775 28.3321 36.2132 21.5034 36.2132H16.7C9.8713 36.2132 4.33557 30.6775 4.33557 23.8488V14.27ZM7.12124 13.8721C6.90145 13.8721 6.72329 14.0503 6.72329 14.27V23.8488C6.72329 29.3588 11.19 33.8255 16.7 33.8255H21.5034C27.0134 33.8255 31.4801 29.3588 31.4801 23.8488V14.27C31.4801 14.0503 31.3019 13.8721 31.0822 13.8721H7.12124Z" fill="#93CC1A"/>
<path fill-rule="evenodd" clip-rule="evenodd" d="M15.0921 5.43799C14.0937 6.0954 13.5087 7.00536 13.5087 8.21103V19.3819C13.5087 20.0413 12.9742 20.5758 12.3148 20.5758C11.6555 20.5758 11.121 20.0413 11.121 19.3819V8.21103C11.121 6.06549 12.2325 4.46201 13.7789 3.44377C15.2903 2.44861 17.23 1.99027 19.1009 1.99023C20.9719 1.9902 22.9116 2.44849 24.423 3.44361C25.9694 4.46183 27.081 6.0653 27.081 8.21087V19.3819C27.081 20.0413 26.5464 20.5758 25.8871 20.5758C25.2277 20.5758 24.6932 20.0413 24.6932 19.3819V8.21087C24.6932 7.00517 24.1083 6.09522 23.1099 5.43785C22.0764 4.7574 20.6231 4.37792 19.101 4.37795C17.5788 4.37797 16.1255 4.75749 15.0921 5.43799Z" fill="#93CC1A"/>
</svg>
