<svg width="38" height="38" viewBox="0 0 38 38" fill="none" xmlns="http://www.w3.org/2000/svg">
<path d="M9.50005 15.8334V22.1667M28.5 15.8334V22.1667M3.16672 12.9834L3.16672 25.0167C3.16672 26.7902 3.16672 27.677 3.51186 28.3544C3.81546 28.9502 4.2999 29.4347 4.89575 29.7383C5.57313 30.0834 6.45988 30.0834 8.23338 30.0834L29.7667 30.0834C31.5402 30.0834 32.427 30.0834 33.1044 29.7383C33.7002 29.4347 34.1846 28.9502 34.4882 28.3544C34.8334 27.677 34.8334 26.7902 34.8334 25.0167V12.9834C34.8334 11.2099 34.8334 10.3232 34.4882 9.64578C34.1846 9.04993 33.7002 8.5655 33.1044 8.2619C32.427 7.91675 31.5402 7.91675 29.7667 7.91675L8.23339 7.91675C6.45989 7.91675 5.57314 7.91675 4.89575 8.26189C4.2999 8.56549 3.81546 9.04993 3.51186 9.64578C3.16672 10.3232 3.16672 11.2099 3.16672 12.9834ZM22.9584 19.0001C22.9584 21.1862 21.1862 22.9584 19.0001 22.9584C16.8139 22.9584 15.0417 21.1862 15.0417 19.0001C15.0417 16.814 16.8139 15.0417 19.0001 15.0417C21.1862 15.0417 22.9584 16.814 22.9584 19.0001Z" stroke="#9747FF" stroke-width="2.38771" stroke-linecap="round" stroke-linejoin="round"/>
</svg>
