<svg width="38" height="38" viewBox="0 0 38 38" fill="none" xmlns="http://www.w3.org/2000/svg">
<path d="M14.5032 17.2109C14.3449 17.1951 14.1549 17.1951 13.9807 17.2109C10.2124 17.0842 7.21991 13.9967 7.21991 10.1967C7.21991 6.31758 10.3549 3.16675 14.2499 3.16675C18.1291 3.16675 21.2799 6.31758 21.2799 10.1967C21.2641 13.9967 18.2716 17.0842 14.5032 17.2109Z" stroke="#22C55E" stroke-width="2.38771" stroke-linecap="round" stroke-linejoin="round"/>
<path d="M25.9826 6.33325C29.0542 6.33325 31.5242 8.81909 31.5242 11.8749C31.5242 14.8674 29.1492 17.3058 26.1884 17.4166C26.0617 17.4008 25.9192 17.4008 25.7767 17.4166" stroke="#22C55E" stroke-width="2.38771" stroke-linecap="round" stroke-linejoin="round"/>
<path d="M6.5867 23.0535C2.75503 25.6185 2.75503 29.7985 6.5867 32.3477C10.9409 35.261 18.0817 35.261 22.4359 32.3477C26.2675 29.7827 26.2675 25.6027 22.4359 23.0535C18.0975 20.156 10.9567 20.156 6.5867 23.0535Z" stroke="#22C55E" stroke-width="2.38771" stroke-linecap="round" stroke-linejoin="round"/>
<path d="M29.0385 31.6667C30.1785 31.4292 31.2551 30.9701 32.1418 30.2892C34.6118 28.4367 34.6118 25.3809 32.1418 23.5284C31.271 22.8634 30.2101 22.4201 29.086 22.1667" stroke="#22C55E" stroke-width="2.38771" stroke-linecap="round" stroke-linejoin="round"/>
</svg>
