<svg width="24" height="24" viewBox="0 0 24 24" fill="none" xmlns="http://www.w3.org/2000/svg">
<path fill-rule="evenodd" clip-rule="evenodd" d="M4 5.75C3.30964 5.75 2.75 6.30964 2.75 7V18C2.75 18.6904 3.30964 19.25 4 19.25H20C20.6904 19.25 21.25 18.6904 21.25 18V7C21.25 6.30964 20.6904 5.75 20 5.75H4ZM1.25 7C1.25 5.48122 2.48122 4.25 4 4.25H20C21.5188 4.25 22.75 5.48122 22.75 7V18C22.75 19.5188 21.5188 20.75 20 20.75H4C2.48122 20.75 1.25 19.5188 1.25 18V7Z" fill="#6B7280"/>
<path fill-rule="evenodd" clip-rule="evenodd" d="M1.82682 8.22418C2.00945 7.8524 2.45888 7.69906 2.83066 7.88169L11.8898 12.3318C11.9593 12.3659 12.0407 12.3659 12.1102 12.3318L21.1693 7.88169C21.5411 7.69906 21.9905 7.8524 22.1732 8.22418C22.3558 8.59596 22.2024 9.04539 21.8307 9.22802L12.7716 13.6781C12.2849 13.9171 11.715 13.9171 11.2284 13.6781L2.16931 9.22802C1.79753 9.04539 1.64419 8.59596 1.82682 8.22418Z" fill="#6B7280"/>
<path fill-rule="evenodd" clip-rule="evenodd" d="M15.6179 12.6273C15.5429 12.5729 15.4441 12.5644 15.361 12.6051L12.77 13.8747C12.2843 14.1127 11.7157 14.1127 11.23 13.8747L8.63899 12.6051C8.55587 12.5644 8.45704 12.5729 8.38212 12.6273L2.44059 16.9404C2.10538 17.1837 1.63639 17.1093 1.39305 16.7741C1.14972 16.4388 1.22419 15.9699 1.5594 15.7265L7.50094 11.4134C8.02532 11.0327 8.71713 10.973 9.29902 11.2581L11.89 12.5277C11.9594 12.5617 12.0406 12.5617 12.11 12.5277L14.701 11.2581C15.2829 10.973 15.9747 11.0327 16.4991 11.4134L22.4406 15.7265C22.7758 15.9699 22.8503 16.4388 22.6069 16.7741C22.3636 17.1093 21.8946 17.1837 21.5594 16.9404L15.6179 12.6273Z" fill="#6B7280"/>
</svg>
