<svg width="77" height="76" viewBox="0 0 77 76" fill="none" xmlns="http://www.w3.org/2000/svg">
<rect x="0.5" width="76" height="76" rx="38" fill="#E6F2FF"/>
<path d="M30.1082 33.6619L38.4999 38.5227L46.8282 33.6935" stroke="#007AFF" stroke-width="2.38771" stroke-linecap="round" stroke-linejoin="round"/>
<path d="M38.4997 47.136V38.5068" stroke="#007AFF" stroke-width="2.38771" stroke-linecap="round" stroke-linejoin="round"/>
<path d="M36.5367 28.9593L31.47 31.7776C30.33 32.4109 29.38 34.0101 29.38 35.3243V40.6918C29.38 42.0059 30.3142 43.6051 31.47 44.2384L36.5367 47.0568C37.6134 47.6584 39.3867 47.6584 40.4792 47.0568L45.5459 44.2384C46.6859 43.6051 47.6359 42.0059 47.6359 40.6918V35.3084C47.6359 33.9943 46.7017 32.3951 45.5459 31.7618L40.4792 28.9434C39.3867 28.3418 37.6134 28.3418 36.5367 28.9593Z" stroke="#007AFF" stroke-width="2.38771" stroke-linecap="round" stroke-linejoin="round"/>
<path d="M54.333 42.75C54.333 48.8775 49.3772 53.8333 43.2497 53.8333L44.9121 51.0625" stroke="#007AFF" stroke-width="2.38771" stroke-linecap="round" stroke-linejoin="round"/>
<path d="M22.6665 33.2501C22.6665 27.1226 27.6223 22.1667 33.7498 22.1667L32.0874 24.9376" stroke="#007AFF" stroke-width="2.38771" stroke-linecap="round" stroke-linejoin="round"/>
</svg>
