<svg width="77" height="76" viewBox="0 0 77 76" fill="none" xmlns="http://www.w3.org/2000/svg">
<rect x="0.5" width="76" height="76" rx="38" fill="#F0FDF4"/>
<path d="M50.0584 31.5401V39.6943C50.0584 44.571 47.2717 46.6609 43.0917 46.6609H29.1742C28.4617 46.6609 27.7809 46.5977 27.1475 46.4552C26.7517 46.3918 26.3717 46.281 26.0234 46.1543C23.6484 45.2677 22.2076 43.2093 22.2076 39.6943V31.5401C22.2076 26.6634 24.9942 24.5735 29.1742 24.5735H43.0917C46.6384 24.5735 49.1876 26.0776 49.8684 29.5135C49.9792 30.1468 50.0584 30.7959 50.0584 31.5401Z" stroke="#22C55E" stroke-width="2.38771" stroke-miterlimit="10" stroke-linecap="round" stroke-linejoin="round"/>
<path d="M54.8102 36.2903V44.4445C54.8102 49.3212 52.0235 51.4111 47.8435 51.4111H33.926C32.7543 51.4111 31.6935 51.2529 30.7752 50.9045C28.891 50.2079 27.6085 48.767 27.1493 46.4554C27.7827 46.5979 28.4635 46.6611 29.176 46.6611H43.0935C47.2735 46.6611 50.0602 44.5712 50.0602 39.6945V31.5403C50.0602 30.7961 49.9968 30.1312 49.8702 29.5137C52.8785 30.147 54.8102 32.2686 54.8102 36.2903Z" stroke="#22C55E" stroke-width="2.38771" stroke-miterlimit="10" stroke-linecap="round" stroke-linejoin="round"/>
<path d="M36.1227 39.8049C38.4312 39.8049 40.3027 37.9334 40.3027 35.6248C40.3027 33.3163 38.4312 31.4448 36.1227 31.4448C33.8141 31.4448 31.9426 33.3163 31.9426 35.6248C31.9426 37.9334 33.8141 39.8049 36.1227 39.8049Z" stroke="#22C55E" stroke-width="2.38771" stroke-miterlimit="10" stroke-linecap="round" stroke-linejoin="round"/>
<path d="M27.0685 32.1418V39.1086" stroke="#22C55E" stroke-width="2.38771" stroke-miterlimit="10" stroke-linecap="round" stroke-linejoin="round"/>
<path d="M45.1843 32.1423V39.109" stroke="#22C55E" stroke-width="2.38771" stroke-miterlimit="10" stroke-linecap="round" stroke-linejoin="round"/>
</svg>
