<svg width="77" height="76" viewBox="0 0 77 76" fill="none" xmlns="http://www.w3.org/2000/svg">
<rect x="0.5" width="76" height="76" rx="38" fill="#FDF1FF"/>
<path d="M38.4999 41.1667H40.0832C41.8249 41.1667 43.2499 39.7417 43.2499 38.0001V22.1667H28.9999C26.6249 22.1667 24.5507 23.4809 23.4741 25.4126" stroke="#C600FF" stroke-width="2.38771" stroke-linecap="round" stroke-linejoin="round"/>
<path d="M22.6665 45.9167C22.6665 48.5451 24.7882 50.6668 27.4165 50.6668H28.9999C28.9999 48.9251 30.4249 47.5001 32.1665 47.5001C33.9082 47.5001 35.3332 48.9251 35.3332 50.6668H41.6665C41.6665 48.9251 43.0915 47.5001 44.8332 47.5001C46.5749 47.5001 47.9999 48.9251 47.9999 50.6668H49.5832C52.2115 50.6668 54.3332 48.5451 54.3332 45.9167V41.1667H49.5832C48.7124 41.1667 47.9999 40.4542 47.9999 39.5834V34.8334C47.9999 33.9626 48.7124 33.2501 49.5832 33.2501H51.6256L48.9182 28.5159C48.3482 27.5343 47.3032 26.9167 46.1632 26.9167H43.2499V38.0001C43.2499 39.7417 41.8249 41.1667 40.0832 41.1667H38.4999" stroke="#C600FF" stroke-width="2.38771" stroke-linecap="round" stroke-linejoin="round"/>
<path d="M32.1666 53.8333C33.9155 53.8333 35.3333 52.4156 35.3333 50.6667C35.3333 48.9178 33.9155 47.5 32.1666 47.5C30.4177 47.5 28.9999 48.9178 28.9999 50.6667C28.9999 52.4156 30.4177 53.8333 32.1666 53.8333Z" stroke="#C600FF" stroke-width="2.38771" stroke-linecap="round" stroke-linejoin="round"/>
<path d="M44.8335 53.8333C46.5824 53.8333 48.0001 52.4156 48.0001 50.6667C48.0001 48.9178 46.5824 47.5 44.8335 47.5C43.0846 47.5 41.6668 48.9178 41.6668 50.6667C41.6668 52.4156 43.0846 53.8333 44.8335 53.8333Z" stroke="#C600FF" stroke-width="2.38771" stroke-linecap="round" stroke-linejoin="round"/>
<path d="M54.3332 38V41.1667H49.5832C48.7123 41.1667 47.9998 40.4542 47.9998 39.5833V34.8333C47.9998 33.9625 48.7123 33.25 49.5832 33.25H51.6256L54.3332 38Z" stroke="#C600FF" stroke-width="2.38771" stroke-linecap="round" stroke-linejoin="round"/>
<path d="M22.6665 31.6667H32.1665" stroke="#C600FF" stroke-width="2.38771" stroke-linecap="round" stroke-linejoin="round"/>
<path d="M22.6665 36.4167H28.9999" stroke="#C600FF" stroke-width="2.38771" stroke-linecap="round" stroke-linejoin="round"/>
<path d="M22.6665 41.1667H25.8332" stroke="#C600FF" stroke-width="2.38771" stroke-linecap="round" stroke-linejoin="round"/>
</svg>
