<svg width="77" height="76" viewBox="0 0 77 76" fill="none" xmlns="http://www.w3.org/2000/svg">
<rect x="0.5" width="76" height="76" rx="38" fill="#FFFAEF"/>
<path d="M24.5192 30.78L38.5 38.8708L52.3858 30.8275" stroke="#F2A002" stroke-width="2.38771" stroke-linecap="round" stroke-linejoin="round"/>
<path d="M38.5 53.2158V38.855" stroke="#F2A002" stroke-width="2.38771" stroke-linecap="round" stroke-linejoin="round"/>
<path d="M53.7157 39.3143V33.5193C53.7157 31.3343 52.1482 28.6743 50.2324 27.6134L41.7774 22.9267C39.9724 21.9134 37.0273 21.9134 35.2223 22.9267L26.7673 27.6134C24.8515 28.6743 23.284 31.3343 23.284 33.5193V42.481C23.284 44.666 24.8515 47.3259 26.7673 48.3868L35.2223 53.0735C36.1248 53.5801 37.3124 53.8334 38.4999 53.8334C39.6874 53.8334 40.8749 53.5801 41.7774 53.0735" stroke="#F2A002" stroke-width="2.38771" stroke-linecap="round" stroke-linejoin="round"/>
<path d="M49.9 52.8834C52.6982 52.8834 54.9666 50.6149 54.9666 47.8167C54.9666 45.0184 52.6982 42.75 49.9 42.75C47.1018 42.75 44.8333 45.0184 44.8333 47.8167C44.8333 50.6149 47.1018 52.8834 49.9 52.8834Z" stroke="#F2A002" stroke-width="2.38771" stroke-linecap="round" stroke-linejoin="round"/>
<path d="M55.9167 53.8333L54.3333 52.25" stroke="#F2A002" stroke-width="2.38771" stroke-linecap="round" stroke-linejoin="round"/>
</svg>
