<svg width="77" height="76" viewBox="0 0 77 76" fill="none" xmlns="http://www.w3.org/2000/svg">
<rect x="0.5" width="76" height="76" rx="38" fill="#EEF2FF"/>
<path d="M43.2498 22.1667V38.0001C43.2498 39.7417 41.8248 41.1667 40.0832 41.1667H22.6665V31.0651C23.8223 32.4426 25.5957 33.2976 27.559 33.2501C29.1582 33.2184 30.599 32.6009 31.6757 31.5718C32.1665 31.1601 32.5782 30.6376 32.8949 30.0676C33.4649 29.1017 33.7815 27.9617 33.7498 26.7742C33.7023 24.9217 32.879 23.2909 31.5965 22.1667H43.2498Z" stroke="#6366F1" stroke-width="2.38771" stroke-linecap="round" stroke-linejoin="round"/>
<path d="M54.3332 41.1667V45.9167C54.3332 48.5451 52.2115 50.6668 49.5832 50.6668H47.9998C47.9998 48.9251 46.5748 47.5001 44.8332 47.5001C43.0915 47.5001 41.6665 48.9251 41.6665 50.6668H35.3332C35.3332 48.9251 33.9082 47.5001 32.1665 47.5001C30.4248 47.5001 28.9998 48.9251 28.9998 50.6668H27.4165C24.7882 50.6668 22.6665 48.5451 22.6665 45.9167V41.1667H40.0832C41.8248 41.1667 43.2498 39.7417 43.2498 38.0001V26.9167H46.1632C47.3032 26.9167 48.3482 27.5343 48.9182 28.5159L51.6256 33.2501H49.5832C48.7123 33.2501 47.9998 33.9626 47.9998 34.8334V39.5834C47.9998 40.4542 48.7123 41.1667 49.5832 41.1667H54.3332Z" stroke="#6366F1" stroke-width="2.38771" stroke-linecap="round" stroke-linejoin="round"/>
<path d="M32.167 53.8333C33.9159 53.8333 35.3337 52.4156 35.3337 50.6667C35.3337 48.9178 33.9159 47.5 32.167 47.5C30.4181 47.5 29.0003 48.9178 29.0003 50.6667C29.0003 52.4156 30.4181 53.8333 32.167 53.8333Z" stroke="#6366F1" stroke-width="2.38771" stroke-linecap="round" stroke-linejoin="round"/>
<path d="M44.8331 53.8333C46.582 53.8333 47.9997 52.4156 47.9997 50.6667C47.9997 48.9178 46.582 47.5 44.8331 47.5C43.0842 47.5 41.6664 48.9178 41.6664 50.6667C41.6664 52.4156 43.0842 53.8333 44.8331 53.8333Z" stroke="#6366F1" stroke-width="2.38771" stroke-linecap="round" stroke-linejoin="round"/>
<path d="M54.3335 38V41.1667H49.5835C48.7127 41.1667 48.0002 40.4542 48.0002 39.5833V34.8333C48.0002 33.9625 48.7127 33.25 49.5835 33.25H51.626L54.3335 38Z" stroke="#6366F1" stroke-width="2.38771" stroke-linecap="round" stroke-linejoin="round"/>
<path d="M33.7502 26.7743C33.7818 27.9618 33.4652 29.1018 32.8952 30.0676C32.5785 30.6376 32.1669 31.1601 31.676 31.5718C30.5994 32.601 29.1586 33.2185 27.5594 33.2501C25.5961 33.2976 23.8227 32.4426 22.6668 31.0651C22.4452 30.8276 22.2552 30.5585 22.081 30.2893C21.4635 29.3551 21.1152 28.2468 21.0835 27.0593C21.036 25.0643 21.9227 23.2435 23.3477 22.056C24.4243 21.1693 25.786 20.6151 27.2743 20.5835C28.9368 20.5518 30.4569 21.1535 31.5969 22.1668C32.8794 23.291 33.7027 24.9218 33.7502 26.7743Z" stroke="#6366F1" stroke-width="2.38771" stroke-miterlimit="10" stroke-linecap="round" stroke-linejoin="round"/>
<path d="M24.9471 26.9643L26.5463 28.4843L29.8554 25.2859" stroke="#6366F1" stroke-width="2.38771" stroke-linecap="round" stroke-linejoin="round"/>
</svg>
