<svg width="77" height="76" viewBox="0 0 77 76" fill="none" xmlns="http://www.w3.org/2000/svg">
<rect x="0.5" width="76" height="76" rx="38" fill="#F6FDE7"/>
<path d="M54.333 42.75C54.333 48.8775 49.3772 53.8333 43.2497 53.8333L44.9122 51.0625" stroke="#93CC1A" stroke-width="2.38771" stroke-linecap="round" stroke-linejoin="round"/>
<path d="M22.6665 33.2501C22.6665 27.1226 27.6223 22.1667 33.7498 22.1667L32.0873 24.9376" stroke="#93CC1A" stroke-width="2.38771" stroke-linecap="round" stroke-linejoin="round"/>
<path d="M41.1914 26.0459L47.4931 29.6875L53.7314 26.0617" stroke="#93CC1A" stroke-width="2.38771" stroke-linecap="round" stroke-linejoin="round"/>
<path d="M47.493 36.1317V29.6716" stroke="#93CC1A" stroke-width="2.38771" stroke-linecap="round" stroke-linejoin="round"/>
<path d="M46.0048 22.4992L42.2048 24.605C41.3498 25.08 40.6373 26.2833 40.6373 27.265V31.2867C40.6373 32.2684 41.334 33.4717 42.2048 33.9467L46.0048 36.0526C46.8123 36.5117 48.1423 36.5117 48.9657 36.0526L52.7656 33.9467C53.6206 33.4717 54.3332 32.2684 54.3332 31.2867V27.265C54.3332 26.2833 53.6365 25.08 52.7656 24.605L48.9657 22.4992C48.1582 22.0559 46.8282 22.0559 46.0048 22.4992Z" stroke="#93CC1A" stroke-width="2.38771" stroke-linecap="round" stroke-linejoin="round"/>
<path d="M23.2207 43.4624L29.5065 47.104L35.7607 43.4783" stroke="#93CC1A" stroke-width="2.38771" stroke-linecap="round" stroke-linejoin="round"/>
<path d="M29.5067 53.5482V47.0881" stroke="#93CC1A" stroke-width="2.38771" stroke-linecap="round" stroke-linejoin="round"/>
<path d="M28.034 39.9158L24.234 42.0215C23.379 42.4965 22.6665 43.6998 22.6665 44.6815V48.7032C22.6665 49.6849 23.3632 50.8882 24.234 51.3632L28.034 53.4691C28.8415 53.9282 30.1715 53.9282 30.9948 53.4691L34.7948 51.3632C35.6498 50.8882 36.3623 49.6849 36.3623 48.7032V44.6815C36.3623 43.6998 35.6657 42.4965 34.7948 42.0215L30.9948 39.9158C30.1715 39.4724 28.8415 39.4724 28.034 39.9158Z" stroke="#93CC1A" stroke-width="2.38771" stroke-linecap="round" stroke-linejoin="round"/>
</svg>
