<svg width="25" height="25" viewBox="0 0 25 25" fill="none" xmlns="http://www.w3.org/2000/svg">
<path fill-rule="evenodd" clip-rule="evenodd" d="M1.25 8.01245C1.25 5.94138 2.92893 4.26245 5 4.26245H19C21.0711 4.26245 22.75 5.94138 22.75 8.01245V18.9999C22.75 21.071 21.0711 22.7499 19 22.7499H5C2.92893 22.7499 1.25 21.071 1.25 18.9999V8.01245ZM5 5.76245C3.75736 5.76245 2.75 6.76981 2.75 8.01245V18.9999C2.75 20.2426 3.75736 21.2499 5 21.2499H19C20.2426 21.2499 21.25 20.2426 21.25 18.9999V8.01245C21.25 6.76981 20.2426 5.76245 19 5.76245H5Z" fill="#686F77"/>
<path fill-rule="evenodd" clip-rule="evenodd" d="M6.99976 1.24999C7.41397 1.24985 7.74987 1.58552 7.75001 1.99973L7.75104 5.01248C7.75118 5.42669 7.41551 5.76259 7.0013 5.76273C6.58708 5.76287 6.25118 5.4272 6.25104 5.01299L6.25001 2.00024C6.24987 1.58603 6.58554 1.25013 6.99976 1.24999Z" fill="#686F77"/>
<path fill-rule="evenodd" clip-rule="evenodd" d="M17 1.25C17.4142 1.25 17.75 1.58579 17.75 2V4.63158C17.75 5.04579 17.4142 5.38158 17 5.38158C16.5858 5.38158 16.25 5.04579 16.25 4.63158V2C16.25 1.58579 16.5858 1.25 17 1.25Z" fill="#686F77"/>
<path fill-rule="evenodd" clip-rule="evenodd" d="M5.25 9.36841C5.25 8.95419 5.58579 8.61841 6 8.61841L18 8.61841C18.4142 8.61841 18.75 8.9542 18.75 9.36841C18.75 9.78262 18.4142 10.1184 18 10.1184L6 10.1184C5.58579 10.1184 5.25 9.78262 5.25 9.36841Z" fill="#686F77"/>
</svg>
